<svg xmlns="http://www.w3.org/2000/svg">
  <symbol id="icon-toolbar-home" viewBox="0 0 946.39 946.4">
        <path d="M105,437.71c-2.1,1.84-4.21,3.66-6.29,5.51-17.17,15.3-34.28,30.66-51.56,45.84A52.43,52.43,0,0,1,36,496.63c-11.84,5.91-25.45-.34-30.77-9.75-7.33-13-5.54-24.9,5.84-35q35.94-31.82,72-63.52L260,232.27q96-84.68,191.9-169.36c5.07-4.48,10.49-8.21,17.31-9.41,9.5-1.68,17.37,1.85,24.28,7.9q26.72,23.39,53.28,46.92l236.16,208.4q76.49,67.48,152.94,135c6.24,5.51,10.83,12,9.89,20.8-1.14,10.59-6.32,18.86-15.54,24.3-4.88,2.87-10.24,2.62-15.51,1.05a38.71,38.71,0,0,1-14.51-8.6q-27.3-24.24-54.52-48.53c-1.19-1.06-2.45-2.05-4.55-3.8-.08,3.14-.18,5.21-.18,7.29q0,135.75,0,271.52c0,17,.4,34-.35,51-1.5,33.7-13.4,63.4-36.92,87.82-14.11,14.65-31.44,24.56-50.7,31a149.16,149.16,0,0,1-47.68,7.32q-232,0-464,0c-24.08,0-46.94-5-68.25-16.43a119.89,119.89,0,0,1-50.43-50.52,135.85,135.85,0,0,1-16-58.28c-.25-5.82-.57-11.65-.57-17.47q0-152.76,0-305.52v-6.41Zm368.58-324.2c-8.14,7.2-16,14.13-23.86,21.08Q306.3,261.53,162.88,388.41a11.69,11.69,0,0,0-4.42,9.77q.18,179.28.19,358.55a107.16,107.16,0,0,0,2.19,21.81c3.34,15.85,10.7,29.79,22.76,40.79,16.29,14.83,35.93,21.32,57.68,21.33q230.5.12,461,0a120.16,120.16,0,0,0,22.33-2c17.34-3.28,32.43-11.17,44.1-24.62,13.8-15.9,20-34.85,20-55.68q.16-180.27,0-360.55a12.5,12.5,0,0,1,0-1.5,5.86,5.86,0,0,0-2.58-6.05,27.33,27.33,0,0,1-2.61-2.33L667.94,285.53,478.55,117.8C477,116.39,475.3,115,473.53,113.51Z"/>
    </symbol>
    <symbol id="icon-toolbar-search" viewBox="0 0 840.39 946.4">
        <path d="M600.44,615.84c1.74,1.82,3.2,3.38,4.7,4.89Q717,733.43,828.76,846.15a54.14,54.14,0,0,1,7.81,9.68c4.49,7.28,4.44,14.91,0,22.25-5.78,9.66-13.71,15.89-25.72,14.66-6.55-.67-11.93-4-16.8-8.16-1.39-1.2-2.63-2.56-3.93-3.85Q678,769.43,565.87,658.1a50.11,50.11,0,0,1-4-5.13c-2.77,2.17-4.71,3.64-6.59,5.19A346.86,346.86,0,0,1,511.06,689a327.77,327.77,0,0,1-88.63,35.73,341.26,341.26,0,0,1-56.63,9.19c-8.31.61-16.61,1.4-24.93,1.58-6.81.15-13.66-.31-20.46-.81a388.11,388.11,0,0,1-55.35-7.8c-33.41-7.41-65.12-19.29-94.7-36.54a321,321,0,0,1-60.21-45.24C96,631.59,82.63,617.46,70.69,602a326.18,326.18,0,0,1-56.22-110.7A363.38,363.38,0,0,1,2.06,425.61a317.79,317.79,0,0,1-.76-54.4c5-64.72,24.59-124.27,62.76-177.12,35.27-48.84,80.35-86,135.32-110.86A317.91,317.91,0,0,1,280,59a439,439,0,0,1,44.13-5c40.16-2.36,79.37,3.56,117.8,15.1a321.05,321.05,0,0,1,101.81,52,352.23,352.23,0,0,1,80.93,85.79,322.79,322.79,0,0,1,42.52,93.26,367.5,367.5,0,0,1,12.08,68.26,314,314,0,0,1,1.06,37.94,355.68,355.68,0,0,1-17.45,99,324.18,324.18,0,0,1-56,102.48ZM341.05,105.47a325.1,325.1,0,0,0-77.59,11,280.91,280.91,0,0,0-82,37.08,298.41,298.41,0,0,0-54.8,47.18A271.75,271.75,0,0,0,79,272.53a277.4,277.4,0,0,0-20.45,64.6c-5,27-7.63,54-4.71,81.5,2.55,23.94,6.81,47.44,14.44,70.3a272.5,272.5,0,0,0,31.4,64.51,289.63,289.63,0,0,0,44.3,52,283.6,283.6,0,0,0,56.34,41.23c40.08,22.13,83.25,33.43,128.79,36,24.46,1.41,48.55-1.66,72.49-6.33a273.22,273.22,0,0,0,67.54-22.64c36-17.57,66.61-42.13,92.52-72.64a285.86,285.86,0,0,0,65.46-149.35c1.54-13,2.85-26.22,2.82-39.34-.05-18-2.31-35.88-5.65-53.6C617,300,602.78,264.07,580.75,231.23c-28.65-42.69-66.35-74.94-112.61-97C428.14,115.08,385.58,106.6,341.05,105.47Z"/>
    </symbol>
    <symbol id="icon-toolbar-shop" viewBox="0 0 816.39 946.4">
        <path d="M193,450.38H71.48c-8,0-16.08-.32-23.75-3C33.59,442.48,21.74,434.34,13,422A68.38,68.38,0,0,1,.11,381.31Q.17,257.69.15,134.1c0-21,8-38.54,23.67-52.36A64,64,0,0,1,65,65.33c13.33-.4,26.68-.15,40-.15q105.2,0,210.39,0c21.21,0,39,7.55,53.17,23.42,7,7.83,12.29,16.73,14.3,27.13a110.49,110.49,0,0,1,2.39,20.62c.16,81.1,0,162.21.17,243.31,0,24.23-9.06,43.7-28.45,58.16-12.24,9.12-26.26,12.67-41.45,12.62C274.67,450.29,233.82,450.38,193,450.38ZM340.15,258.14v-45q0-39.48,0-78.95c0-7.66-2.71-14-8.69-18.86-4.91-4-10.8-5-16.93-5H198c-42.14,0-84.28-.07-126.41.12a32.74,32.74,0,0,0-13.35,2.64c-9.6,4.48-13,13-13,23.21q.06,73.29,0,146.58c0,32.22-.1,64.45.12,96.67a32.21,32.21,0,0,0,2.68,13c4.25,9.2,12.22,12.68,22.16,12.67q122.5-.09,245,0a14.32,14.32,0,0,0,3.88-.13c3.36-.95,7-1.62,9.9-3.35,7.77-4.55,11.09-11.72,11.08-20.69Q340.08,319.57,340.15,258.14Z"/>
        <path d="M431,688.36q0-60.21,0-120.41c0-10.23.86-20.26,4.93-29.77a69.72,69.72,0,0,1,25.68-31.12c12.51-8.39,26.38-11.12,41.24-11.1q120.6.21,241.19.06c8.28,0,16.55.25,24.47,2.94,14.19,4.83,26,13,34.79,25.29a68,68,0,0,1,13,40.7q0,123.6-.06,247.2c-.06,25.94-11.53,46-33.5,59.67a64,64,0,0,1-30.44,9.29c-1.89.12-3.78.11-5.67.11q-123.25,0-246.51,0c-22.37,0-40.66-8.93-54.65-26.28-10.38-12.88-14.53-27.87-14.45-44.38C431.13,769.82,431,729.09,431,688.36Zm45.2.24q0,61.44,0,122.87c0,8.07,2.67,14.81,9,19.78,5.05,3.94,11.1,4.8,17.36,4.8q121.09,0,242.2,0a34.8,34.8,0,0,0,3.54-.07c8.41-.87,15.87-3.86,19.46-12a37.25,37.25,0,0,0,3.14-14.6q.29-112.59.14-225.2c0-6.37.11-12.75-.06-19.12-.14-5.5-1.47-10.71-5-15.16-5.16-6.57-12.11-8.73-20.23-8.72q-122.17.11-244.33.05a14.73,14.73,0,0,0-3.88.11c-3.48,1-7.22,1.6-10.25,3.38-7.73,4.55-11.16,11.66-11.15,20.66Q476.27,627,476.19,688.6Z"/>
        <path d="M623.47,450.38q-60,0-120.06,0c-10.34,0-20.48-.84-30.11-4.93a69.61,69.61,0,0,1-31-25.37c-8.27-12.18-11.42-25.77-11.4-40.44q.19-121.83,0-243.66c-.05-21.95,7.46-40.28,24-54.64a65.61,65.61,0,0,1,40.24-16.08c1.65-.1,3.31-.11,5-.11h246.5c21.53,0,39.46,8.07,53.45,24.41a64.86,64.86,0,0,1,16.06,43.11c.09,83.46.38,166.92-.15,250.38-.18,27.75-13.86,48.21-38.83,60.86-10.18,5.16-21,6.47-32.22,6.46Q684.22,450.34,623.47,450.38ZM476.19,257.89v46c0,25.73,0,51.46,0,77.19a23.81,23.81,0,0,0,3.44,13.12c4.8,7.62,11.82,11,20.8,11q123.06-.07,246.1,0c.83,0,1.65,0,2.48,0a22.76,22.76,0,0,0,14.13-5.69c6.41-5.44,7.9-12.79,7.9-20.7q0-118.78,0-237.59c0-2.59.13-5.2-.08-7.78-.43-5-1.61-9.71-4.71-13.85-5.33-7.13-12.8-9.16-21.16-9.16h-142c-33.75,0-67.51-.08-101.27.12A31.16,31.16,0,0,0,489.14,113c-9,4.15-13,11.76-13,21.64Q476.23,196.28,476.19,257.89Z"/>
        <path d="M385.34,688.54q0,60.21,0,120.42c0,8.16-.25,16.29-2.83,24.13-4.73,14.37-12.89,26.36-25.22,35.25-12.87,9.27-27.37,13-43.19,13q-121.49-.22-243,0c-19.32,0-36.09-6-50-19.31-9.76-9.31-16.6-20.5-19-33.91A112.72,112.72,0,0,1,.21,808.43C.08,727.56.18,646.69.08,565.82c0-16.53,4.73-31.35,15-44.26,9.17-11.55,20.79-19.81,35.34-23a95.54,95.54,0,0,1,20.26-2.4c81.7-.16,163.4-.05,245.09-.13,24,0,43.08,9.65,57.22,28.83,9.05,12.27,12.5,26.34,12.45,41.53C385.24,607.08,385.34,647.81,385.34,688.54Zm-45.19,0V647.49q0-41.25,0-82.51a23.21,23.21,0,0,0-7.34-17.71c-5-4.76-11.11-6.1-17.87-6.09q-122.16.11-244.32,0c-1.07,0-2.13,0-3.19,0a22.73,22.73,0,0,0-16.37,7.93c-4.48,5-5.75,11.18-5.75,17.7V810.15c0,1.18,0,2.36.1,3.53.79,7.63,3.71,14.11,10.33,18.44,4.92,3.22,10.49,3.93,16.24,3.93q118.08,0,236.18,0c2.95,0,5.91.12,8.85-.07,5.12-.33,10-1.58,14.16-4.79,6.43-5,9-11.7,9-19.75Q340.08,750,340.15,688.56Z"/>
    </symbol>
    <symbol id="icon-toolbar-account" viewBox="0 0 820.39 946.4">
        <path d="M820,473.36c-2,112.49-40.83,210-120.64,289.54S522.25,882.83,409.47,882.7c-112.54-.13-209.66-40.48-289.16-120.07C40.47,682.7.21,585.1.5,472.07c.29-112.3,40.64-209.22,120.05-288.55,80-79.92,177.72-120.19,290.87-119.82,112.17.37,208.9,40.81,288.22,120.05C779.38,263.41,818.1,360.9,820,473.36ZM696.94,692.29c92.81-115.51,116.4-324.16-30.15-473.24-143.54-146-381.25-145-523.16,10C6.65,378.61,33.14,580.88,123,692.25q57.31-126,188.33-172.87C284.08,499,264.64,473.86,253,443a167.23,167.23,0,0,1,38.63-178.57c64.37-63.58,167.12-66.41,234.63-1.91C557,292,574.66,328.42,577.32,371c3.82,61.06-20,110.2-68.34,148.58Q639.67,566.47,696.94,692.29ZM409.87,834.92l.07.77c14.64-1.22,29.35-2,43.92-3.79,13.61-1.71,27.2-4,40.57-7a326.67,326.67,0,0,0,56.27-18.55,355.2,355.2,0,0,0,68.24-38.37c13.87-10,26.75-21.07,39.57-32.29,1.59-1.38,2.36-2.62,1.4-4.89-3.37-8-6.25-16.27-9.76-24.23C639.34,682,624.57,660,606.81,639.92a258.86,258.86,0,0,0-42.68-38.4A246.69,246.69,0,0,0,506,570c-10.24-3.81-20.66-7.29-31.22-10.1a261.74,261.74,0,0,0-40.58-7c-28.41-2.9-56.44-.53-84.16,5.74a250.16,250.16,0,0,0-46.22,15.44,266.22,266.22,0,0,0-52.19,30.56,264.06,264.06,0,0,0-91.54,125.93c-.82,2.4-.21,3.64,1.45,5.17a419.57,419.57,0,0,0,48.2,38.36A351.17,351.17,0,0,0,295,816.06a356.19,356.19,0,0,0,54.09,13.68A349.74,349.74,0,0,0,409.87,834.92Zm.22-571.37c-65.94-.11-120,53.84-120.13,119.89s53.84,120,119.88,120.14,120-53.84,120.13-119.89S476.13,263.67,410.09,263.55Z"/>
    </symbol>
    <symbol id="icon-toolbar-cart" viewBox="0 0 718.39 946.4">
        <path d="M359.33,888.13q-166.6,0-333.22.14c-15.6,0-27.47-13.55-25.87-27.44,1.38-12,2.5-24.05,3.77-36.08C5.38,811.86,6.82,799,8.2,786.1q2.21-20.61,4.37-41.23c1.28-12.24,2.51-24.49,3.79-36.73,1.42-13.53,2.9-27.06,4.3-40.59,1.32-12.67,2.55-25.36,3.88-38,1.37-13,2.84-26,4.22-39,1.26-11.81,2.46-23.63,3.71-35.44q3-28.83,6.09-57.66c1.31-12.57,2.52-25.15,3.83-37.71,1.34-12.89,2.78-25.77,4.13-38.65,1.33-12.68,2.59-25.36,3.92-38,1.38-13.1,2.84-26.19,4.23-39.29,1.29-12.14,2.52-24.28,3.79-36.42,1.68-16.11,3.22-32.23,5.1-48.32,1.3-11.14,11.46-20.23,22.72-20.85,1.84-.1,3.68-.11,5.51-.11H202c4.32,0,4.28,0,4.37-4.28.29-12.3.23-24.63,1-36.91,1.35-21.44,8-41.41,18.41-60.09A150.5,150.5,0,0,1,272.6,85.29c13.58-9.33,28.13-16.76,44.18-20.81,7.92-2,15.94-4.05,24-4.83,10.79-1,21.85-2.2,32.53-1C411,62.85,443.68,78.08,470,105.84A151.59,151.59,0,0,1,504.59,164a155.83,155.83,0,0,1,7.52,44.83c.2,8.43.18,16.86,0,25.29-.06,3.08.86,4,4,4,37.38-.1,74.77,0,112.16-.1,6.34,0,12.21,1.21,17.3,5.16a23.4,23.4,0,0,1,9.4,16.37c2.33,21.47,4.49,43,6.79,64.44,2.44,22.87,5,45.72,7.42,68.6,1.91,18,3.58,36.1,5.48,54.14,2.4,22.77,4.95,45.52,7.36,68.28,1.36,12.78,2.51,25.58,3.86,38.36,1.86,17.72,3.84,35.42,5.72,53.14,1.35,12.67,2.58,25.36,3.91,38,1.37,13,2.8,26,4.18,39q1.9,17.88,3.76,35.76,2.21,20.94,4.4,41.88c1.33,12.89,2.57,25.79,3.92,38.68q2.82,26.73,5.75,53.46c.84,7.65,1.87,15.3-2.48,22.37-4.88,7.91-11.8,12.44-21.21,12.44Q526.6,888.17,359.33,888.13Zm0-49.34H661.75c4.41,0,4.64-.28,4.21-4.27q-3.72-34-7.4-67.94-4.17-39.14-8.22-78.29-4-38-8-76-4.11-39.15-8.21-78.29-4-38-8-76-4.11-39.15-8.21-78.29c-2.37-23-4.64-46-7-69-.66-6.45-1.49-12.88-2.12-19.32-.29-3-1.57-4.18-4.78-4.16-29.17.11-58.34.06-87.51.06-4.24,0-4.35.11-4.35,4.39,0,16.32.21,32.64-.16,48.95a32.92,32.92,0,0,1-3.17,13C503.78,364.3,490,369.28,479,365c-10.27-4-16.34-12.76-16.4-24-.08-16.42,0-32.85,0-49.27,0-4.1-.32-4.39-4.47-4.39H260.4c-4.24,0-4.38.13-4.38,4.38,0,16.31.2,32.63-.15,48.94a32.54,32.54,0,0,1-3.06,12.7c-5.08,10.89-18.94,16-30,11.67-10.23-4-16.35-12.7-16.41-23.7-.1-16.64-.07-33.28,0-49.92,0-2.72-.6-4.14-3.79-4.13q-44.42.13-88.82,0c-2.66,0-3.6,1-3.85,3.53-.86,8.59-1.89,17.17-2.79,25.76-1.3,12.34-2.52,24.7-3.83,37-1.36,12.89-2.83,25.76-4.19,38.65s-2.57,25.56-3.9,38.34c-1.43,13.86-2.92,27.71-4.38,41.56C89.6,484.06,88.38,496,87.12,507.9Q85,528.36,82.79,548.81c-1.29,12.24-2.55,24.49-3.85,36.73-1.91,17.93-3.86,35.85-5.75,53.78-1.34,12.78-2.58,25.57-3.91,38.35-1.43,13.86-2.92,27.71-4.37,41.56-1.25,11.92-2.47,23.84-3.74,35.76-1.38,13-2.83,26-4.2,39-1.35,12.78-2.53,25.57-4,38.34-.73,6.51-.92,6.49,5.55,6.49Zm-.11-600.73c33,0,66.11,0,99.16.07,3.27,0,4.35-.94,4.26-4.22-.22-9,0-17.94-.23-26.9-.53-21.14-7.39-40.16-19.91-57.08-16.75-22.64-39.16-36.59-66.89-41-25-4-48.86.33-70.41,14.18-30.59,19.66-47.33,47.61-49.07,84.13-.43,8.84-.11,17.72-.12,26.57,0,4.23,0,4.24,4.36,4.24Z"/>
    </symbol>
    <symbol id="icon-thunder" viewBox="0 0 506.53 510.69"><g id="Layer_2" data-name="Layer 2"><g id="Layer_1-2" data-name="Layer 1">
        <path d="M500.7,27.62q-36.6,35-73.12,70.12-51.12,49.06-102.29,98.1a55.94,55.94,0,0,1-5.33,4c3.14,2.3,5.08,3.77,7.06,5.18,29.3,21,58.69,42,87.82,63.22a21,21,0,0,1,7.21,10.15c2.13,7-1.16,12.82-8.35,16.79Q383.18,312,352.54,328.66L59.88,488.36a297,297,0,0,1-35,20A23.59,23.59,0,0,1,20,510.11h0a19.7,19.7,0,0,1-4.67.58,15.23,15.23,0,0,1-9.59-3.19c-.18-.13-.34-.28-.51-.43a1.49,1.49,0,0,1-.14-.12l-.58-.55L4.19,506a16.25,16.25,0,0,1-4.08-9.31,16.08,16.08,0,0,1-.11-1.8A13.51,13.51,0,0,1,.57,491a18.36,18.36,0,0,1,5.26-7.94q33.48-32,66.89-64.15,67.46-65.28,135-130.49a49.09,49.09,0,0,1,5.42-3.89c-8.41-6.07-15.5-11.2-22.62-16.3l-79.41-57c-12.42-8.92-11.34-21.75,2.4-28.48L481.61,2.37C493.53-3.47,505,1.88,506.42,14,507.08,19.56,504.66,23.84,500.7,27.62Z"/></g></g>
    </symbol>
    <symbol viewBox="0 0 24 24" id="icon-close"><path fill="currentColor" d="m12 13.4l-4.9 4.9q-.275.275-.7.275t-.7-.275q-.275-.275-.275-.7t.275-.7l4.9-4.9l-4.9-4.9q-.275-.275-.275-.7t.275-.7q.275-.275.7-.275t.7.275l4.9 4.9l4.9-4.9q.275-.275.7-.275t.7.275q.275.275.275.7t-.275.7L13.4 12l4.9 4.9q.275.275.275.7t-.275.7q-.275.275-.7.275t-.7-.275L12 13.4Z"></path></symbol>
      <symbol viewBox="0 0 448 512" id="icon-long-arrow-left">
   <path d="M136.97 380.485l7.071-7.07c4.686-4.686 4.686-12.284 0-16.971L60.113 273H436c6.627 0 12-5.373 12-12v-10c0-6.627-5.373-12-12-12H60.113l83.928-83.444c4.686-4.686 4.686-12.284 0-16.971l-7.071-7.07c-4.686-4.686-12.284-4.686-16.97 0l-116.485 116c-4.686 4.686-4.686 12.284 0 16.971l116.485 116c4.686 4.686 12.284 4.686 16.97-.001z"></path>
    </symbol>
       <symbol viewBox="0 0 12 8" id="icon-chevron-down">
      <path d="M6 6.174l5.313-4.96.23-.214.457.427-.23.214-5.51 5.146L6.03 7 6 6.972 5.97 7l-.23-.214L.23 1.64 0 1.428.458 1l.23.214L6 6.174z" stroke-linecap="square" fill-rule="evenodd" />
   </symbol>
   <symbol viewBox="0 0 24 24" id="icon-user"><path fill="currentColor" d="M12 12c2.21 0 4-1.79 4-4s-1.79-4-4-4s-4 1.79-4 4s1.79 4 4 4zm0 2c-2.67 0-8 1.34-8 4v2h16v-2c0-2.66-5.33-4-8-4z"></path></symbol>
   <symbol viewBox="0 0 24 24" id="icon-phone"><path fill="currentColor" d="M20.01 15.38c-1.23 0-2.42-.2-3.53-.56a.977.977 0 0 0-1.01.24l-1.57 1.97c-2.83-1.35-5.48-3.9-6.89-6.83l1.95-1.66c.27-.28.35-.67.24-1.02c-.37-1.11-.56-2.3-.56-3.53c0-.54-.45-.99-.99-.99H4.19C3.65 3 3 3.24 3 3.99C3 13.28 10.73 21 20.01 21c.71 0 .99-.63.99-1.18v-3.45c0-.54-.45-.99-.99-.99z"></path></symbol>
   <symbol viewBox="0 0 24 24" id="icon-mail"><path fill="currentColor" d="M18.83 7h-2.6L10.5 4L4 7.4V17c-1.1 0-2-.9-2-2V7.17c0-.53.32-1.09.8-1.34L10.5 2l7.54 3.83c.43.23.73.7.79 1.17zM20 8H7c-1.1 0-2 .9-2 2v9c0 1.1.9 2 2 2h13c1.1 0 2-.9 2-2v-9c0-1.1-.9-2-2-2zm0 3.67L13.5 15L7 11.67V10l6.5 3.33L20 10v1.67z"></path></symbol>
   <symbol viewBox="0 0 24 24" id="icon-gift"><path fill="currentColor" d="M20 6h-2.18c.11-.31.18-.65.18-1a2.996 2.996 0 0 0-5.5-1.65l-.5.67l-.5-.68C10.96 2.54 10.05 2 9 2C7.34 2 6 3.34 6 5c0 .35.07.69.18 1H4c-1.11 0-1.99.89-1.99 2L2 19c0 1.11.89 2 2 2h16c1.11 0 2-.89 2-2V8c0-1.11-.89-2-2-2zm-5-2c.55 0 1 .45 1 1s-.45 1-1 1s-1-.45-1-1s.45-1 1-1zM9 4c.55 0 1 .45 1 1s-.45 1-1 1s-1-.45-1-1s.45-1 1-1zm11 15H4v-2h16v2zm0-5H4V8h5.08L7 10.83L8.62 12L11 8.76l1-1.36l1 1.36L15.38 12L17 10.83L14.92 8H20v6z"></path></symbol>
   <symbol viewBox="0 0 24 24" id="icon-heart"><path fill="currentColor" d="m12 21.35l-1.45-1.32C5.4 15.36 2 12.28 2 8.5C2 5.42 4.42 3 7.5 3c1.74 0 3.41.81 4.5 2.09C13.09 3.81 14.76 3 16.5 3C19.58 3 22 5.42 22 8.5c0 3.78-3.4 6.86-8.55 11.54L12 21.35z"></path></symbol>
       <symbol viewBox="0 0 551.13 551.13" id="slick-arrow-next">
        <path d="m361.679 275.565-223.896 223.897v51.668l275.565-275.565-275.565-275.565v51.668z"></path>
    </symbol>
    <symbol viewBox="0 0 551.13 551.13" id="slick-arrow-prev">
        <path d="m189.451 275.565 223.897-223.897v-51.668l-275.565 275.565 275.565 275.565v-51.668z"></path>
    </symbol>
</svg>
