<!-- Generated by IcoMoon.io -->
<svg version="1.1" xmlns="http://www.w3.org/2000/svg" width="1024" height="1024" viewBox="0 0 1024 1024">
<title></title>
<g id="icomoon-ignore">
</g>
<path fill="#1b1b1b" d="M747.392 1024h-470.816c-152.416 0-276.608-124.192-276.608-276.608v-470.816c0-152.416 124.192-276.608 276.608-276.608h470.592c152.608 0 276.8 124.192 276.8 276.608v470.592c0 152.608-124.192 276.8-276.608 276.8zM276.608 82.784c-107.008 0-194.016 87.008-194.016 194.016v470.592c0 107.008 87.008 194.016 194.016 194.016h470.592c107.008 0 194.016-87.008 194.016-194.016v-470.816c0-107.008-87.008-194.016-194.016-194.016l-470.592 0.192z"></path>
<path fill="#1b1b1b" d="M513.6 739.616c-48.8 0-96.384-15.616-136.384-45.216-49.184-36.608-81.408-90.016-90.4-150.816-8.992-60.608 6.208-121.184 42.816-170.4s90.016-81.408 150.816-90.4c22.4-3.392 44.992-3.392 67.392 0 48.992 7.2 93.6 29.6 128.608 64.8 35.008 35.008 57.408 79.584 64.8 128.608v0c8.992 60.608-6.208 121.216-42.784 170.4s-90.016 81.408-150.784 90.4c-11.392 1.792-22.784 2.592-34.016 2.592zM514.016 363.008c-7.2 0-14.4 0.608-21.6 1.6-38.816 5.792-72.992 26.208-96.384 57.792s-32.992 70.208-27.392 108.992c5.792 38.784 26.208 72.992 57.792 96.384s70.208 32.992 108.992 27.392c80.192-11.808 135.616-86.784 123.808-166.816-9.6-64.416-59.2-114.208-123.808-123.808-7.008-0.992-14.208-1.6-21.408-1.6z"></path>
<path fill="#1b1b1b" d="M770.784 294.592c-10.784 0-21.6-4.384-29.216-12.192-7.808-7.808-12.192-18.4-12.192-29.184s4.384-21.6 12.192-29.184 18.4-12.192 29.216-12.192 21.6 4.416 29.216 12.192c7.808 7.808 12.192 18.4 12.192 29.184s-4.384 21.6-12.192 29.184-18.208 12.192-29.216 12.192z"></path>
</svg>
